<svg xmlns="http://www.w3.org/2000/svg" viewBox="0 0 210.6 87"><defs><style>.cls-1{fill:#414042;}</style></defs><title>logo-av-small</title><g id="Layer_2" data-name="Layer 2"><g id="Layer_1-2" data-name="Layer 1"><path class="cls-1" d="M150.79,78.35C131.18,78.35,113.32,57.89,96,38,78.17,17.59,61.26-1.75,43.42,1.19,29,3.56,15.34,20.67,1.76,53.49l-.82-.34C14.64,20,28.49,2.73,43.27.31c18.34-3,35.37,16.5,53.41,37.16,18.49,21.14,37.49,43,58.4,39.65,18.5-3,36.39-25.45,54.7-68.74l.82.35C192.17,52.33,174.05,75,155.22,78A28.16,28.16,0,0,1,150.79,78.35Z"/><path class="cls-1" d="M144.11,80.07c-18.76,0-35.84-19.54-52.41-38.48C74.59,22,58.44,3.56,41.37,6.37,27.54,8.65,14.51,25,1.52,56.46l-.83-.34C13.81,24.39,27.07,7.83,41.23,5.49,58.78,2.6,75.1,21.25,92.37,41,110,61.19,128.29,82.06,148.24,78.85,165.92,76,183,54.48,200.51,13l.82.35c-17.61,41.74-34.94,63.44-53,66.34A26.61,26.61,0,0,1,144.11,80.07Z"/><path class="cls-1" d="M137.44,81.82c-17.9,0-34.23-18.63-50.06-36.69C71,26.48,55.61,8.88,39.33,11.57c-13.16,2.19-25.62,17.85-38,47.86l-.83-.34C13,28.77,25.66,12.93,39.17,10.69,55.94,7.91,71.53,25.69,88,44.54c16.87,19.25,34.31,39.16,53.35,36.07,16.88-2.74,33.19-23.31,49.84-62.9l.82.35C175.27,58,158.74,78.7,141.53,81.5A26,26,0,0,1,137.44,81.82Z"/><path class="cls-1" d="M130.8,83.53c-17.06,0-32.63-17.72-47.73-34.91C67.49,30.89,52.77,14.13,37.28,16.73c-12.56,2.1-24.37,17-36.11,45.61L.35,62c11.82-28.9,23.9-44,36.82-46.15C53.17,13.18,68,30.11,83.78,48c16.09,18.31,32.76,37.26,50.86,34.29,16.08-2.62,31.6-22.24,47.43-60l.82.34c-16,38-31.7,57.82-48.11,60.5A24.61,24.61,0,0,1,130.8,83.53Z"/><path class="cls-1" d="M124.11,85.26c-16.2,0-31-16.81-45.35-33.1C63.95,35.35,50,19.47,35.26,21.94,23.34,23.94,12.13,38.14,1,65.32L.17,65C11.43,37.51,22.86,23.14,35.11,21.08c15.2-2.55,29.34,13.51,44.31,30.51,15.3,17.37,31.12,35.33,48.32,32.5,15.28-2.51,30-21.17,45-57l.82.35c-15.14,36.18-30.09,55-45.69,57.58A23.45,23.45,0,0,1,124.11,85.26Z"/><path class="cls-1" d="M117.45,87c-15.35,0-29.39-15.9-43-31.31-14-15.9-27.31-30.92-41.22-28.57C21.93,29,11.34,42.51.83,68.29L0,68C10.64,41.87,21.46,28.23,33.07,26.26,47.46,23.81,60.9,39,75.07,55.11c14.51,16.43,29.52,33.4,45.8,30.72,14.47-2.4,28.4-20.11,42.58-54.13l.82.34C150,66.38,135.81,84.26,121,86.71A22.11,22.11,0,0,1,117.45,87Z"/></g></g></svg>