<svg id="Layer_1" data-name="Layer 1" xmlns="http://www.w3.org/2000/svg" viewBox="0 0 342.26 135.22"><defs><style>.cls-1{fill:#414042;}</style></defs><title>logo-av</title><path class="cls-1" d="M216.62,78.35c-19.61,0-37.47-20.46-54.78-40.3C144,17.59,127.09-1.75,109.25,1.19,94.79,3.56,81.17,20.67,67.59,53.49l-.82-.34C80.47,20,94.32,2.73,109.1.31c18.34-3,35.37,16.5,53.41,37.16C181,58.61,200,80.47,220.91,77.12c18.5-3,36.39-25.45,54.7-68.74l.82.35C258,52.33,239.88,75,221.05,78A28.16,28.16,0,0,1,216.62,78.35Z"/><path class="cls-1" d="M209.94,80.07c-18.76,0-35.84-19.54-52.41-38.48C140.42,22,124.27,3.56,107.2,6.37,93.37,8.65,80.34,25,67.35,56.46l-.83-.34C79.64,24.39,92.9,7.83,107.06,5.49,124.61,2.6,140.93,21.25,158.2,41c17.65,20.19,35.92,41.06,55.87,37.85C231.75,76,248.85,54.48,266.34,13l.82.35c-17.61,41.74-34.94,63.44-53,66.34A26.61,26.61,0,0,1,209.94,80.07Z"/><path class="cls-1" d="M203.27,81.82c-17.9,0-34.23-18.63-50.06-36.69-16.34-18.65-31.77-36.25-48.05-33.56C92,13.76,79.54,29.42,67.18,59.43l-.83-.34C78.85,28.77,91.49,12.93,105,10.69c16.77-2.78,32.36,15,48.87,33.85,16.87,19.25,34.31,39.16,53.35,36.07,16.88-2.74,33.19-23.31,49.84-62.9l.82.35c-16.78,39.9-33.31,60.64-50.52,63.44A26,26,0,0,1,203.27,81.82Z"/><path class="cls-1" d="M196.63,83.53c-17.06,0-32.63-17.72-47.73-34.91-15.58-17.73-30.3-34.49-45.79-31.89-12.56,2.1-24.37,17-36.11,45.61L66.18,62C78,33.1,90.08,18,103,15.85c16-2.67,30.86,14.26,46.61,32.19,16.09,18.31,32.76,37.26,50.86,34.29,16.08-2.62,31.6-22.24,47.43-60l.82.34c-16,38-31.7,57.82-48.11,60.5A24.61,24.61,0,0,1,196.63,83.53Z"/><path class="cls-1" d="M189.94,85.26c-16.2,0-31-16.81-45.35-33.1-14.81-16.81-28.79-32.69-43.5-30.22-11.92,2-23.13,16.2-34.26,43.38L66,65c11.26-27.49,22.69-41.86,34.94-43.92,15.2-2.55,29.34,13.51,44.31,30.51,15.3,17.37,31.12,35.33,48.32,32.5,15.28-2.51,30-21.17,45-57l.82.35c-15.14,36.18-30.09,55-45.69,57.58A23.45,23.45,0,0,1,189.94,85.26Z"/><path class="cls-1" d="M183.28,87c-15.35,0-29.39-15.9-43-31.31-14-15.9-27.31-30.92-41.22-28.57C87.76,29,77.17,42.51,66.66,68.29L65.83,68C76.47,41.87,87.29,28.23,98.9,26.26c14.39-2.45,27.83,12.76,42,28.85,14.51,16.43,29.52,33.4,45.8,30.72,14.47-2.4,28.4-20.11,42.58-54.13l.82.34c-14.31,34.34-28.46,52.22-43.26,54.67A22.11,22.11,0,0,1,183.28,87Z"/><path class="cls-1" d="M25.69,134.71h-2V119.15h1.88l6.2,9.68,6.18-9.68H39.8v15.56h-2V122.93l-5.48,8.42H31.19l-5.49-8.41Z"/><path class="cls-1" d="M51.52,129.86l-2.2,4.85H47.19l7.16-15.56h1.84l7.24,15.56H61.27q-.57-1.2-1.69-3.7L59,129.86Zm3.75-8.25-3.09,6.8h6.2l-.4-.87-1.21-2.69Z"/><path class="cls-1" d="M4.33,129.86l-2.2,4.85H0l7.16-15.56H9l7.24,15.56H14.08q-.57-1.2-1.69-3.7l-.53-1.15Zm3.75-8.25L5,128.41h6.2l-.4-.87-1.21-2.69Z"/><path class="cls-1" d="M72.88,119.15v14.06H82v1.5H70.86V119.15Z"/><path class="cls-1" d="M91.63,120.61H85.72v-1.44H99.54v1.44H93.66v14.11h-2Z"/><path class="cls-1" d="M119.06,119.15h2v15.56h-2v-7.4h-9.8v7.4h-2V119.15h2v6.54h9.8Z"/><path class="cls-1" d="M139.32,127.58H132v5.63h9.64v1.5H130V119.15h11.66v1.45H132v5.49h7.3Z"/><path class="cls-1" d="M152.85,129.86l-2.2,4.85h-2.13l7.16-15.56h1.84l7.24,15.56H162.6q-.57-1.2-1.69-3.7l-.53-1.15Zm3.75-8.25-3.09,6.8h6.2l-.4-.87-1.21-2.69Z"/><path class="cls-1" d="M183.36,119.15l5.94,13.1,6-13.1h2.16l-7.24,15.56h-1.84l-7.16-15.56Z"/><path class="cls-1" d="M214,127.58h-7.3v5.63h9.64v1.5H204.69V119.15h11.66v1.45h-9.64v5.49H214Z"/><path class="cls-1" d="M238.46,134.71H236.6l-9.81-12.34v12.34h-2V119.14h1.85l9.84,12.4v-12.4h2Z"/><path class="cls-1" d="M252.16,120.61h-5.92v-1.44h13.82v1.44h-5.88v14.11h-2Z"/><path class="cls-1" d="M281,119.14V130a4.53,4.53,0,0,1-.47,2,5.1,5.1,0,0,1-1.35,1.67,6.42,6.42,0,0,1-2.19,1.14,9.52,9.52,0,0,1-2.84.4,9.37,9.37,0,0,1-2.85-.41,6.68,6.68,0,0,1-2.18-1.14,4.9,4.9,0,0,1-1.37-1.67,4.57,4.57,0,0,1-.47-2.05V119.14h2V130a3,3,0,0,0,.37,1.47,3.54,3.54,0,0,0,1,1.16,4.66,4.66,0,0,0,1.53.76,6.44,6.44,0,0,0,1.88.27,6.63,6.63,0,0,0,2.06-.3,4.66,4.66,0,0,0,1.57-.84,3.42,3.42,0,0,0,.93-1.17,3.17,3.17,0,0,0,.32-1.39v-10.8Z"/><path class="cls-1" d="M302,134.71H299.6l-4.89-6.82h-3.35v6.82h-2V119.15h6.45a7.93,7.93,0,0,1,2.33.31,5.15,5.15,0,0,1,1.77.91,3.9,3.9,0,0,1,1.08,1.41,4.42,4.42,0,0,1,.37,1.84,3.65,3.65,0,0,1-.34,1.58,3.77,3.77,0,0,1-1,1.26,5,5,0,0,1-1.43.84,6.86,6.86,0,0,1-1.79.43Zm-2.64-11.08a2.84,2.84,0,0,0-.88-2.17,3.84,3.84,0,0,0-2.65-.86h-4.41v5.71h3.56a6.77,6.77,0,0,0,3.17-.58A2.21,2.21,0,0,0,299.31,123.64Z"/><path class="cls-1" d="M318.86,127.58h-7.3v5.63h9.64v1.5H309.53V119.15h11.66v1.45h-9.64v5.49h7.3Z"/><path class="cls-1" d="M328.83,130.45h2a4.09,4.09,0,0,0,1.8,2.32,6.06,6.06,0,0,0,3.17.78,7.46,7.46,0,0,0,1.71-.19,5,5,0,0,0,1.42-.55,2.56,2.56,0,0,0,1.37-2.3,1.84,1.84,0,0,0-.44-1.26,3.5,3.5,0,0,0-1.25-.86,8.17,8.17,0,0,0-1.27-.43q-.7-.18-1.87-.42l-.57-.12q-1.24-.25-2.14-.52a7.44,7.44,0,0,1-1.59-.67,3.08,3.08,0,0,1-1.69-2.81,3.89,3.89,0,0,1,1.88-3.51,5.74,5.74,0,0,1,1.86-.76,10.2,10.2,0,0,1,2.23-.24,8.36,8.36,0,0,1,2.48.37,6.07,6.07,0,0,1,2.36,1.34,4.84,4.84,0,0,1,1.39,2.68h-1.91a2.93,2.93,0,0,0-1.34-2.09,5.32,5.32,0,0,0-2.94-.73,5.55,5.55,0,0,0-2.81.62,2.47,2.47,0,0,0-1.27,2.24,1.7,1.7,0,0,0,.31,1,2.33,2.33,0,0,0,.89.7,6.14,6.14,0,0,0,1.17.43q.67.18,1.73.39l.56.12q1.61.32,2.57.61a10.26,10.26,0,0,1,1.47.58,4.35,4.35,0,0,1,1.09.75,3.42,3.42,0,0,1,1,2.56,3.76,3.76,0,0,1-.53,2,4.5,4.5,0,0,1-1.48,1.47,7.36,7.36,0,0,1-2.07.85,10.66,10.66,0,0,1-5.21-.06,5.73,5.73,0,0,1-2.49-1.4A6.06,6.06,0,0,1,328.83,130.45Z"/></svg>